<svg width="144" height="130" viewBox="0 0 144 130" fill="none" xmlns="http://www.w3.org/2000/svg">
<path d="M44.1361 1.16537e-05C44.4649 1.16537e-05 44.7681 0.777073 46.4712 5.9876C46.6552 6.55048 47.3496 8.25889 48.0144 9.78392C52.1743 19.3271 57.659 24.1565 64.3323 24.1521C65.9202 24.1502 69.5275 23.4228 70.3901 22.929C70.643 22.7842 71.1731 22.5694 71.5681 22.4516C72.2547 22.247 76.4551 19.9544 78.5767 18.6262C79.4832 18.0587 79.6097 18.0251 79.8489 18.2902C80.0881 18.5553 80.0431 18.7315 79.3945 20.0638C78.9985 20.8773 78.1629 22.4094 77.5377 23.4686C73.8879 29.6517 70.4197 33.5544 66.939 35.396C66.494 35.6314 65.8332 36.1532 65.4702 36.5554C65.0092 37.0662 64.4721 37.3993 63.7713 37.6015C63.2993 38.6855 62.4642 40.5628 61.4705 42.5535C62.3933 42.7805 63.4959 43.0459 65.0771 43.425C65.9775 43.6408 67.3345 43.9078 68.0927 44.0183C68.8509 44.1287 69.859 44.3369 70.3329 44.4811C70.8068 44.6252 72.0475 44.8421 73.09 44.9629C74.1326 45.0836 75.5671 45.3021 76.278 45.4488C76.9888 45.5954 78.7335 45.8074 80.1552 45.9194C81.5768 46.0314 83.9419 46.2861 85.4109 46.4855C86.88 46.6849 89.1288 46.9014 90.4082 46.9666C93.1294 47.1051 93.51 47.1736 93.51 47.5252C93.51 47.9181 92.8233 47.9873 87.6511 48.1174C83.1519 48.2306 79.6944 48.089 76.1056 47.6446C75.3 47.5448 73.8129 47.3766 72.8006 47.2705C70.9405 47.0756 68.1764 46.5749 65.3356 45.9183C62.199 45.1934 60.764 44.9267 60.5325 45.0252C60.402 45.0806 59.7384 46.3542 59.058 47.8556C57.2036 51.9476 54.7989 55.0059 50.0852 59.2666C46.4988 62.5083 46.0555 62.9848 45.4238 64.2771C44.8963 65.3563 44.8311 65.649 44.8342 66.9226C44.838 68.5067 45.1543 69.3959 46.2363 70.8614C47.4764 72.541 49.7776 73.7497 52.0747 73.9283C53.3794 74.0297 53.5213 74.0016 54.4872 73.4498C56.9076 72.0671 57.1955 71.9894 59.9075 71.9857C62.5949 71.9821 62.9565 72.0825 65.4453 73.5244C66.4453 74.1037 67.0026 74.1 68.0927 73.5058C68.5666 73.2475 69.0872 73.0353 69.2495 73.0344C69.4118 73.0334 69.9546 72.8637 70.4557 72.6574C70.9569 72.451 72.4137 72.0455 73.6931 71.756C75.8334 71.2718 76.3297 71.2301 79.8967 71.2358C82.7013 71.2402 84.2029 71.3274 85.3248 71.5517C86.4321 71.773 87.0974 71.8133 87.6511 71.6919C88.9105 71.4157 90.7695 71.4804 92.879 71.8739C96.2263 72.4982 98.0777 73.6505 98.9304 75.6411C99.6015 77.2079 99.6805 78.5657 99.2026 80.3089C98.4067 83.2125 98.1429 83.5995 93.0984 89.262C86.4763 96.6951 84.0866 100.132 83.4293 103.17C83.0727 104.818 83.1445 106.046 83.6911 107.658C84.1117 108.898 85.481 110.645 87.5649 112.601C89.2522 114.185 91.1898 116.625 91.6805 117.784C91.9081 118.322 92.2578 119.154 92.4576 119.633C93.5362 122.222 92.1224 125.257 89.0903 126.862C87.4487 127.73 84.0684 128.53 81.4476 128.67C78.7011 128.817 75.2063 128.524 73.7483 128.025C72.3501 127.547 71.8585 127.546 68.4374 128.022C66.6005 128.277 64.6592 128.404 62.5802 128.404C59.8632 128.404 59.2315 128.342 57.5781 127.919C56.5373 127.653 54.8714 127.359 53.8763 127.267C49.505 126.86 47.6805 126.638 46.5527 126.377C45.8892 126.223 44.9199 126.008 44.3987 125.898C43.145 125.635 40.2832 124.694 38.8844 124.084C36.7034 123.133 33.4653 120.992 31.241 119.03C29.9107 117.856 29.8334 117.892 27.1666 120.923C24.5761 123.867 23.0539 125.285 21.1354 126.54C18.316 128.384 15.8405 129.288 12.347 129.75C10.9448 129.935 9.2813 130.039 8.55598 129.986C2.45035 129.544 -0.629868 128.726 0.107574 127.742C0.222977 127.588 0.833542 127.144 1.46426 126.755C4.38655 124.956 6.44862 123.03 7.6752 120.953C8.01753 120.374 8.724 119 9.24527 117.9C10.6854 114.862 12.7204 112.669 15.9658 110.659C16.6766 110.218 17.4019 109.702 17.5772 109.512C17.9594 109.097 17.8987 108.939 16.6436 107.079C16.1706 106.378 15.3965 105.054 14.9234 104.138C11.4007 97.3176 10.0506 90.5347 10.6134 82.4838C11.2095 73.9563 14.6825 65.5178 20.2674 59.026C21.646 57.4236 24.591 54.7036 26.2188 53.5296C29.0239 51.5066 30.4895 50.6725 34.0594 49.0665C35.0546 48.6188 36.5279 47.9541 37.3335 47.5893C38.1391 47.2246 38.9921 46.8605 39.229 46.7801C40.0945 46.4865 43.3094 44.6904 44.437 43.8706C45.6018 43.0237 47.0852 41.3824 47.3295 40.6702C47.5116 40.1391 47.3667 39.994 45.7001 39.0402C44.8945 38.579 44.1972 38.0911 44.1503 37.9557C44.0169 37.5705 45.5903 37.647 46.6668 38.078C46.9402 38.1876 47.4692 38.3757 48.1369 38.6039C48.5535 36.8421 49.174 33.919 49.2516 31.7705C48.4261 31.4819 46.0604 27.7728 44.7537 24.6716C42.9654 20.4272 42.3303 17.276 42.2059 12.0289C42.1286 8.76688 42.1667 8.05462 42.5842 4.9643C43.08 1.29534 43.4848 1.16537e-05 44.1361 1.16537e-05ZM99.932 14.4275C100.513 14.4439 101.037 14.957 101.41 15.917C101.605 16.4177 101.924 17.8529 102.12 19.1062C102.315 20.3594 102.543 21.6425 102.626 21.9575C102.709 22.2725 102.867 23.0175 102.978 23.6133C103.205 24.8371 103.263 24.908 104.446 25.3928C105.55 25.8456 107.522 28.0122 108.269 29.5949C108.567 30.225 109.019 31.5997 109.273 32.6498C109.528 33.7 109.789 34.774 109.855 35.0365C109.96 35.4607 110.078 35.5206 110.913 35.5732C111.43 35.6057 112.553 35.4982 113.408 35.3345C116.461 34.7504 116.622 34.5633 115.051 33.4251C114.432 32.9773 114.075 32.6034 114.168 32.5007C114.344 32.3058 116.781 32.8451 117.463 33.2297C117.7 33.3634 118.075 33.6885 118.298 33.9521C119.028 34.8185 118.44 35.623 116.724 36.1068C116.23 36.246 115.438 36.4799 114.964 36.6263C114.49 36.7726 113.055 36.9555 111.776 37.0328C110.497 37.11 109.101 37.2442 108.674 37.3307C107.451 37.5791 100.053 37.4049 97.3011 37.063C95.9268 36.8922 94.4147 36.6098 93.9408 36.4357C93.4669 36.2616 92.5752 36.0121 91.9591 35.8808C89.2881 35.3118 87.6608 34.2533 87.8914 33.2353C88.0323 32.6135 88.9298 31.9842 89.6759 31.9823C90.3035 31.9823 90.3516 32.1347 89.9758 32.94C89.7297 33.4672 89.7368 33.5131 90.1077 33.7824C91.1972 34.5734 95.0672 35.3033 95.5176 34.8027C95.6391 34.6677 95.8093 33.6993 95.8999 32.6301C96.137 29.8331 96.6907 28.49 98.4753 26.3829L99.417 25.2716L99.3204 23.9008C99.2675 23.1469 99.0688 21.6711 98.8789 20.621C98.1823 16.7705 98.2386 15.3526 99.1131 14.7176C99.3919 14.5153 99.6678 14.42 99.932 14.4275ZM125.251 33.9081C125.607 33.8949 126.047 34.0136 126.539 34.2609C127.694 34.8422 127.853 35.578 126.999 36.3943C126.538 36.8358 123.972 37.6584 122.366 37.8797C121.604 37.9847 120.76 38.1635 120.491 38.2768C120.222 38.3901 118.946 38.6115 117.655 38.7687C116.365 38.9259 114.699 39.1815 113.954 39.3367C113.209 39.4919 111.983 39.619 111.229 39.619C110.475 39.619 109.712 39.7055 109.533 39.8114C109.355 39.9173 108.928 40.5946 108.586 41.3165C108.244 42.0384 107.619 43.0759 107.199 43.6219C106.306 44.7804 106.264 45.1516 106.785 47.2369C106.979 48.0096 107.145 49.1877 107.156 49.8552C107.171 50.8766 107.102 51.1843 106.718 51.7981C106.467 52.1993 106.262 52.6331 106.262 52.7621C106.262 52.8911 106.149 53.2945 106.012 53.6586V53.6605C105.875 54.0247 105.715 54.3225 105.658 54.3225C105.6 54.3225 105.402 53.9428 105.216 53.4789C105.031 53.015 104.616 52.2859 104.294 51.8586C103.928 51.3737 103.663 50.7758 103.589 50.2677C103.523 49.82 103.329 48.8522 103.157 48.1171C102.985 47.382 102.798 46.4733 102.742 46.0977C102.534 44.7178 102.735 44.7714 97.4717 44.6959C89.3729 44.5798 87.1437 44.406 79.1212 43.2647C73.2224 42.4254 68.4624 41.0435 67.0612 39.7637C66.242 39.0155 66.2174 38.1217 66.9945 37.3352C67.8562 36.4632 70.8271 35.4254 72.4741 35.421L72.8918 35.4191L72.4741 35.917C72.2443 36.1908 71.6684 36.6085 71.1945 36.8452C70.1457 37.369 69.341 38.1736 69.4185 38.6206C69.4976 39.0776 70.9994 39.9462 72.1423 40.1962C72.6635 40.3102 73.6716 40.5714 74.3824 40.7761C75.0933 40.9809 76.5121 41.2322 77.5354 41.3348C78.5587 41.4373 79.9932 41.6481 80.7233 41.8035C81.4533 41.9589 83.5628 42.1831 85.4109 42.3014C87.2591 42.4197 89.1201 42.5963 89.5466 42.694C90.7826 42.9773 98.8519 43.1565 98.8519 42.9006C98.8519 42.7835 98.3127 42.0106 97.6534 41.183L96.4546 39.6782L94.7523 39.5544C93.8159 39.4864 92.3737 39.3004 91.5478 39.1409C90.722 38.9813 89.113 38.7661 87.9722 38.6628C86.8314 38.5595 85.4978 38.3519 85.0084 38.2011C84.5191 38.0503 83.6145 37.8697 82.9985 37.7998C81.7778 37.6615 80.6403 37.1973 80.2548 36.68C79.6528 35.8721 80.8089 34.6558 82.1799 34.6558C82.9095 34.6558 82.9508 34.7659 82.5259 35.5862C82.1316 36.3474 82.3093 36.5261 83.7012 36.7665C84.3099 36.8716 85.1105 37.0887 85.4803 37.2487C85.85 37.4087 87.0132 37.6225 88.0651 37.7241C89.117 37.8258 90.6366 38.0469 91.4422 38.2153C92.6214 38.4618 94.1834 38.5225 99.4551 38.5263C107.607 38.5322 110.764 38.4088 112.638 38.0113C113.443 37.8404 114.996 37.6194 116.087 37.5202C117.179 37.4209 118.303 37.251 118.586 37.1428C118.869 37.0346 119.914 36.8273 120.909 36.6822C122.917 36.3895 125.217 35.6861 125.217 35.3651C125.217 35.2508 125.045 34.9539 124.834 34.7054C124.509 34.3221 124.489 34.2264 124.705 34.0755C124.852 33.972 125.037 33.9167 125.251 33.9088V33.9081ZM134.616 35.2275C135.3 35.2275 136.383 35.9358 136.684 36.5797C137.067 37.4 136.87 38.1564 136.096 38.8351C135.301 39.533 132.988 40.7646 132.473 40.7646C132.263 40.7646 131.766 40.9268 131.368 41.1252C130.97 41.3235 130.296 41.5458 129.87 41.6189C129.443 41.692 128.629 41.9052 128.06 42.0929C127.492 42.2806 126.484 42.4946 125.82 42.568C125.157 42.6415 124.226 42.826 123.752 42.9782C123.278 43.1304 121.805 43.3813 120.478 43.5357C118.619 43.7522 118.017 43.8904 117.852 44.1387C117.679 44.3994 117.686 44.5207 117.891 44.7716C118.08 45.0035 118.134 45.4984 118.104 46.7324C118.065 48.3321 118.045 48.4044 117.462 49.0818C117.13 49.4662 116.521 49.9445 116.106 50.1446C115.388 50.4916 115.359 50.5375 115.473 51.1261C115.894 53.2795 115.745 54.0087 114.733 54.7632C114.386 55.0217 113.986 55.279 113.844 55.3349C112.453 55.8816 110.509 54.5566 110.394 52.9844C110.286 51.4982 110.379 51.2124 111.269 50.3012L112.14 49.4088L111.771 48.1931C111.418 47.0326 111.413 46.9293 111.673 45.9235C111.823 45.3439 111.966 44.6126 111.99 44.2983C112.05 43.5248 112.526 43.3039 114.875 42.9607C115.932 42.8062 116.858 42.6384 116.932 42.5878C117.006 42.5371 117.912 42.4059 118.945 42.2965C119.978 42.1871 121.249 41.9702 121.771 41.8143C122.292 41.6585 123.41 41.4365 124.254 41.321C125.099 41.2054 126.253 40.9469 126.818 40.7467C127.384 40.5465 128.089 40.3791 128.384 40.3745C128.68 40.3699 129.232 40.2338 129.611 40.0721C129.99 39.9104 130.766 39.6281 131.334 39.4448C132.749 38.9889 134.114 38.1859 134.455 37.6089C134.718 37.1649 134.718 37.0687 134.458 36.3153C134.094 35.2593 134.099 35.2275 134.616 35.2275ZM141.443 36.9459C142.431 36.9459 144 38.5818 144 39.6119C144 41.6474 140.305 43.4446 134.522 44.2215C133.811 44.317 132.261 44.5345 131.076 44.7048C129.891 44.8751 128.108 45.0677 127.113 45.1329C124.185 45.3247 119.64 45.2345 119.204 44.9759C118.922 44.809 118.867 44.6835 118.998 44.509C119.124 44.3408 119.935 44.2602 121.75 44.2357C123.25 44.2155 125.284 44.0437 126.623 43.8244C127.887 43.6173 129.852 43.3599 130.99 43.2523C133.823 42.9842 137.471 42.1777 139.643 41.3396C140.359 41.0633 140.887 40.7075 141.237 40.266C141.855 39.486 141.866 39.3525 141.415 38.1869C140.982 37.0663 140.984 36.9459 141.443 36.9459ZM94.4194 48.4407C94.6897 48.4407 94.954 48.5087 95.1945 48.6567C95.9265 49.107 96.9564 50.6835 96.9564 51.3536C96.9564 52.1712 96.0839 53.5104 95.4503 53.6653C95.1888 53.7293 94.8991 53.8019 94.8068 53.8268C94.5306 53.9013 93.4508 53.64 93.0516 53.4021C92.4804 53.0616 91.9591 51.981 91.9591 51.1373C91.9591 49.6968 93.2479 48.4386 94.4194 48.4407ZM120.074 48.4754C120.295 48.464 120.455 48.5292 120.665 48.6813C121.218 49.0826 121.19 49.3222 120.521 49.9488C120.051 50.3888 119.993 50.5292 120.155 50.8218C120.353 51.1763 120.842 51.2306 121.555 50.9773C121.897 50.856 121.943 50.9054 121.943 51.392C121.943 52.1405 121.524 52.7492 120.858 52.9698C119.139 53.5391 117.535 51.9509 117.98 50.1204C118.184 49.281 118.614 48.8683 119.588 48.5765C119.787 48.5168 119.941 48.4823 120.074 48.4754ZM105.696 54.7114C105.735 54.7114 105.779 54.8052 105.867 54.9933C105.964 55.201 106.085 56.2493 106.136 57.3226C106.211 58.8908 106.297 59.3705 106.578 59.7659C106.77 60.0365 106.98 60.533 107.045 60.8694C107.189 61.6126 108.163 63.8644 108.807 64.9402C109.941 66.8356 110.201 67.2291 110.532 67.5573C110.883 67.9053 110.884 67.9045 110.8 66.4117C110.687 64.4212 111.094 63.4829 112.465 62.5658C113.32 61.9942 113.518 61.9387 114.487 62.0016C115.395 62.0605 115.644 62.159 116.096 62.6355C116.39 62.9457 116.798 63.5854 117.003 64.0571C117.457 65.1011 118.315 65.777 119.186 65.777C119.651 65.777 120.04 65.9588 120.611 66.4419C121.538 67.2261 121.848 68.0645 121.727 69.4622C121.655 70.2882 121.542 70.5345 120.953 71.1433C119.562 72.5802 117.647 72.2903 116.394 70.4534L115.748 69.5062L114.538 69.5681C113.496 69.6214 113.219 69.5616 112.531 69.1355C112.092 68.8636 111.665 68.641 111.582 68.641C111.277 68.641 111.45 69.2891 112.186 70.902C113.609 74.0191 114.271 75.8766 114.78 78.1878C114.908 78.7653 115.143 79.7826 115.304 80.4484C115.548 81.4639 115.584 82.3558 115.526 85.9855C115.451 90.7264 115.475 90.5967 114.124 93.6132C113.264 95.532 111.462 97.3892 109.051 98.8411C108.736 99.031 108.347 99.5429 108.09 100.105C107.534 101.319 106.846 101.95 105.661 102.332L104.711 102.638V104.853C104.711 106.961 104.686 107.116 104.197 108.063C103.451 109.507 100.873 111.392 99.5931 111.429C99.2329 111.44 98.7442 111.522 98.5073 111.611C97.8387 111.863 96.7591 111.667 95.7357 111.106C94.5169 110.439 94.243 110.159 94.102 109.434C94.0378 109.103 93.7981 108.476 93.5692 108.041C93.3404 107.605 93.071 106.746 92.9708 106.131C92.8707 105.517 92.7303 104.646 92.6588 104.196C92.5226 103.338 91.8226 102.334 91.1625 102.049C90.6718 101.838 89.082 102.361 88.4565 102.94C87.761 103.584 86.7621 103.56 86.285 102.888C86.0886 102.611 85.9282 102.16 85.9286 101.886C85.9294 101.184 86.5285 100.176 87.0907 99.9301C87.5949 99.7096 87.8002 99.5831 88.5598 99.025C89.2326 98.5307 91.8434 98.329 92.5131 98.7196C92.7771 98.8736 93.2451 99.1407 93.5531 99.3133C94.4274 99.8031 94.8822 100.342 95.4277 101.535C95.9375 102.649 96.3716 105.208 96.1702 105.911C96.022 106.429 97.3756 108.068 98.2004 108.369C98.7917 108.585 98.9364 108.574 99.4002 108.27C99.8039 108.006 100.143 107.95 100.848 108.03C101.593 108.115 101.849 108.065 102.192 107.766C102.884 107.163 103.246 105.822 103.246 103.86C103.246 102.279 103.199 102.036 102.686 100.97C102.035 99.6166 101.988 98.8635 102.483 97.7306C103.175 96.1465 105.356 95.3553 105.904 96.4895C106.044 96.7803 105.944 96.9399 105.306 97.4382C104.738 97.8819 104.539 98.1643 104.539 98.5272C104.539 99.1006 105.24 99.9543 105.712 99.9543C106.223 99.9543 106.951 99.093 106.954 98.4835C106.957 97.7152 107.18 97.4326 107.746 97.4751C108.712 97.5477 108.96 97.4648 109.975 96.7308C111.978 95.2826 113.27 93.459 114.117 90.8849C114.606 89.3981 114.619 89.2609 114.619 85.7297C114.619 82.4939 114.578 81.9678 114.24 80.8608C114.031 80.1783 113.785 79.1902 113.693 78.6651C113.27 76.2408 111.161 71.1761 109.162 67.7818C107.365 64.73 106.335 62.3174 106.16 60.7527C106.1 60.2081 105.954 59.5907 105.837 59.3807C105.58 58.9202 105.361 55.5249 105.554 54.9933C105.622 54.8052 105.656 54.7114 105.696 54.7114ZM101.162 59.0279C101.649 59.0371 102.103 59.1585 102.43 59.3964C103.489 60.1646 104.497 61.501 104.618 62.2962C104.848 63.8076 103.63 65.7274 102.106 66.254C101.096 66.6031 100.717 66.5984 99.8465 66.2256C98.323 65.5735 97.6457 64.4826 97.6457 62.6803C97.6457 61.2002 98.1135 60.3208 99.3161 59.5399C99.8553 59.1898 100.537 59.0161 101.162 59.0279ZM90.1696 62.9268C90.486 62.9161 90.7913 63.0023 91.0592 63.2102C91.5455 63.5877 91.5442 63.8075 91.0544 63.9728C90.4135 64.1892 90.0636 64.6548 90.0636 65.2911C90.0636 66.0318 90.3317 66.3498 90.9558 66.3498C91.4653 66.3498 91.904 65.8116 92.0076 65.0595C92.099 64.3959 92.2405 64.3784 92.6285 64.9823C92.9919 65.5478 93.0711 65.8906 93.0203 66.6772C92.9884 67.1714 92.0505 68.4188 91.5377 68.6489C90.9652 68.9058 89.5684 68.8541 89.0495 68.5567C88.4641 68.2213 87.7479 67.207 87.5875 66.4859C87.2206 64.8364 88.7987 62.9729 90.1696 62.9268ZM101.324 69.6289C101.649 69.6401 101.935 69.7876 102.472 70.1696C103.497 70.8979 103.849 71.549 103.849 72.7111C103.849 73.6578 103.443 74.3745 102.572 74.9628C101.069 75.9783 98.861 74.7999 98.5723 72.8282C98.3645 71.4096 99.4894 69.9268 100.976 69.6595C101.104 69.6366 101.216 69.6252 101.324 69.6289ZM105.996 74.3747C106.509 74.381 106.981 74.5954 107.532 75.0299C108.882 76.0932 109.536 77.0581 109.536 77.9871C109.536 79.3139 108.77 80.5971 107.554 81.3072C106.901 81.6887 105.193 81.7134 104.56 81.3505C103.812 80.9219 102.847 79.6193 102.72 78.8661C102.421 77.1006 103.211 75.4225 104.666 74.7312C105.173 74.4906 105.597 74.3698 105.996 74.3747Z" fill="url(#paint0_linear_101_1567)"/>
<path d="M12.3471 129.75C15.8405 129.288 18.3161 128.384 21.1355 126.54C23.054 125.285 24.5762 123.867 27.1667 120.923C29.8334 117.892 29.9107 117.856 31.241 119.03C33.4653 120.992 36.7034 123.133 38.8845 124.084C40.2833 124.694 43.1451 125.635 44.3987 125.898C44.92 126.008 45.8893 126.223 46.5527 126.377C47.6805 126.638 49.5051 126.86 53.8764 127.267C54.8715 127.359 56.5373 127.653 57.5781 127.919C59.2315 128.342 59.8633 128.404 62.5803 128.404C64.6593 128.404 66.6006 128.277 68.4374 128.022C71.8586 127.546 72.3503 127.547 73.7485 128.025C75.2064 128.524 78.7012 128.817 81.4476 128.67C84.0685 128.53 87.4487 127.73 89.0903 126.862C92.1225 125.257 93.5362 122.222 92.4576 119.633C92.2578 119.154 91.9081 118.322 91.6804 117.784C91.1898 116.625 89.2523 114.185 87.565 112.602C85.4811 110.645 84.1115 108.898 83.6909 107.658C83.1443 106.046 83.0727 104.818 83.4293 103.17C84.0867 100.133 86.4763 96.6952 93.0984 89.2621C98.1429 83.5996 98.4068 83.2126 99.2027 80.3091C99.6806 78.5658 99.6013 77.2082 98.9302 75.6413C98.0776 73.6508 96.2264 72.4982 92.879 71.8738C90.7696 71.4804 88.9106 71.4157 87.6512 71.6918C87.0975 71.8132 86.4322 71.7732 85.3249 71.5519C84.203 71.3277 82.7014 71.2402 79.8968 71.2358C76.3297 71.2301 75.8334 71.2718 73.6932 71.756C72.4137 72.0455 70.9569 72.4511 70.4557 72.6575C69.9546 72.8638 69.4118 73.0334 69.2495 73.0344C69.0872 73.0353 68.5667 73.2475 68.0928 73.5057C67.0027 74.0999 66.4451 74.1039 65.4452 73.5245C62.9563 72.0826 62.595 71.9822 59.9076 71.9858C57.1955 71.9895 56.9076 72.0672 54.4872 73.45C53.5213 74.0018 53.3795 74.0299 52.0747 73.9285C49.7776 73.7499 47.4765 72.541 46.2364 70.8614C45.1544 69.3959 44.8379 68.5068 44.8341 66.9227C44.831 65.6492 44.8963 65.3565 45.4238 64.2772C46.0555 62.985 46.4989 62.5084 50.0853 59.2666C54.799 55.0059 57.2037 51.9478 59.058 47.8558C59.7384 46.3544 60.4019 45.0806 60.5323 45.0251C60.7639 44.9266 62.1991 45.1936 65.3357 45.9185C68.1765 46.5751 70.9403 47.0757 72.8004 47.2705C73.8127 47.3766 75.3001 47.5449 76.1057 47.6447C79.6945 48.0892 83.152 48.2308 87.6512 48.1176C92.8233 47.9875 93.5101 47.9181 93.5101 47.5253C93.5101 47.1736 93.1295 47.1051 90.4083 46.9665C89.1288 46.9014 86.88 46.6849 85.411 46.4856C83.942 46.2862 81.5769 46.0314 80.1552 45.9193C78.7336 45.8073 76.9888 45.5957 76.278 45.4491C75.5672 45.3024 74.1326 45.0836 73.0901 44.9629C72.0476 44.8421 70.8068 44.6254 70.333 44.4812C69.8591 44.3371 68.851 44.1288 68.0928 44.0183C67.3346 43.9079 65.9776 43.6409 65.0772 43.425C59.6878 42.1329 59.5794 42.1046 54.8241 40.7442C52.859 40.182 47.7543 38.5137 46.6666 38.0781C45.5902 37.6471 44.0167 37.5706 44.1501 37.9558C44.197 38.0912 44.8946 38.5792 45.7003 39.0404C47.3668 39.9942 47.5117 40.1391 47.3295 40.6702C47.0852 41.3824 45.6018 43.0237 44.437 43.8706C43.3094 44.6905 40.0946 46.4865 39.2291 46.7801C38.9922 46.8605 38.1392 47.2247 37.3336 47.5894C36.528 47.9541 35.0546 48.6188 34.0595 49.0665C30.4896 50.6725 29.024 51.5068 26.2189 53.5298C24.591 54.7038 21.646 57.4236 20.2674 59.026C14.6825 65.5177 11.2096 73.9564 10.6135 82.4839C10.0507 90.5348 11.4007 97.3177 14.9234 104.139C15.3965 105.055 16.1706 106.378 16.6437 107.079C17.8988 108.939 17.9593 109.097 17.5771 109.512C17.4017 109.702 16.6767 110.218 15.9658 110.659C12.7205 112.669 10.6855 114.862 9.24533 117.9C8.72406 119 8.01749 120.374 7.67516 120.954C6.44859 123.03 4.38654 124.956 1.46423 126.756C0.833527 127.144 0.223053 127.588 0.107651 127.742C-0.629776 128.726 2.45041 129.545 8.55605 129.986C9.28137 130.039 10.9448 129.935 12.3471 129.75ZM5.85095 127.793C4.66495 127.603 4.42036 127.505 4.42036 127.22C4.42036 127.031 4.48061 126.876 4.55424 126.876C4.755 126.876 6.37334 125.496 7.51636 124.35C8.88388 122.979 10.6669 120.445 11.9163 118.097C13.6878 114.768 14.3355 113.996 16.4929 112.645C18.1646 111.598 20.3045 110.878 22.1694 110.735C24.187 110.581 24.8031 110.778 24.7225 111.554C24.6744 112.018 24.558 112.109 23.7203 112.335C23.199 112.476 22.2685 112.954 21.6524 113.398C19.7482 114.769 19.5793 114.87 18.7192 115.153C17.6203 115.514 15.8797 116.536 15.8797 116.819C15.8797 117.119 18.2438 117.222 19.1538 116.963C20.9842 116.441 21.2251 116.759 19.8052 117.825C18.8828 118.517 16.8865 119.67 15.7369 120.176C14.9793 120.509 15.2692 120.855 16.3596 120.919C17.0728 120.961 17.6741 120.84 18.6339 120.463C19.3515 120.18 19.9935 120.01 20.0606 120.084C20.292 120.341 18.4361 121.758 16.0084 123.178C13.0892 124.885 12.7779 125.087 12.7779 125.266C12.7779 125.627 14.108 125.559 15.074 125.15C17.2971 124.207 18.8328 123.377 20.0763 122.446C20.6114 122.045 21.3595 121.491 21.7386 121.214C22.1177 120.938 23.2603 119.779 24.2778 118.639C26.06 116.642 26.5203 116.292 26.6936 116.804C26.8384 117.232 26.583 117.662 25.2962 119.155C23.1683 121.623 20.7324 123.669 18.3783 124.964C17.7623 125.303 17.1064 125.669 16.9208 125.778C15.6763 126.503 13.4678 127.124 10.0016 127.721C8.0258 128.061 7.57668 128.069 5.85095 127.793ZM75.8472 125.75C72.0591 124.857 68.0213 122.709 65.3269 120.155C62.1577 117.151 59.8397 112.955 58.7724 108.29C58.2486 106 58.2642 104.851 58.8202 104.764C59.2203 104.701 59.6358 105.513 60.9513 108.928C63.4658 115.457 66.6992 119.485 71.5088 122.08C73.3612 123.08 74.5524 123.544 77.0535 124.242C78.9656 124.775 79.3679 124.82 82.3954 124.845C85.5989 124.871 85.7004 124.859 87.1042 124.315C88.6758 123.705 90.0175 122.576 90.4064 121.535C90.651 120.881 91.0976 120.758 91.0976 121.345C91.0976 121.907 90.6239 123.077 90.1885 123.591C89.5131 124.387 88.0662 125.153 86.3351 125.628C84.0553 126.255 83.8724 126.273 80.4999 126.211C78.3169 126.17 77.1313 126.053 75.8472 125.75ZM58.9007 124.952C52.5474 123.445 48.0177 120.464 44.3353 115.365C43.0419 113.574 43.2952 113.347 45.6546 114.181C46.6691 114.54 47.3711 114.656 48.5308 114.656C49.4283 114.656 50.1119 114.572 50.1782 114.453C50.3789 114.094 49.7295 113.54 48.8666 113.335C48.4046 113.225 47.735 112.962 47.3784 112.75C47.0219 112.538 46.6202 112.365 46.4858 112.365C46.3514 112.365 45.7491 112.107 45.1473 111.792C44.5455 111.477 43.9911 111.22 43.9153 111.22C43.6107 111.22 40.1255 108.537 39.3868 107.734C38.2446 106.492 37.2785 104.792 36.8226 103.221C36.488 102.068 36.4394 101.586 36.5167 100.186C36.7122 96.6425 38.3515 93.4742 42.0202 89.5495C44.2811 87.1308 44.7253 86.557 44.7373 86.0393C44.742 85.8334 44.5557 85.8036 43.8818 85.9027C43.2083 86.0017 43.0202 85.9717 43.0202 85.7654C43.0202 85.0507 48.465 80.1476 48.8209 80.5419C48.9362 80.6697 48.517 82.2161 48.2441 82.6696C47.9218 83.2052 47.9408 84.8706 48.2692 84.8706C48.4077 84.8706 49.1995 83.8289 50.0287 82.5557C52.5502 78.6842 54.6475 76.4532 57.0631 75.0728C58.011 74.5312 58.2653 74.4756 60.0799 74.4128L62.0616 74.3441L63.4401 75.094C64.204 75.5096 65.3018 76.3239 65.9022 76.9204C67.4146 78.423 68.0132 78.3718 68.2591 76.7191C68.3246 76.2788 68.4691 75.8354 68.5801 75.7337C68.8647 75.4732 71.9399 74.3692 72.3811 74.3692C72.5821 74.3692 73.2891 74.192 73.9522 73.9754C75.4174 73.4969 80.5137 73.2297 81.3371 73.5882C81.9742 73.8656 81.881 73.9886 79.7488 75.6833C75.8731 78.7639 71.7585 83.48 71.3587 85.3002C71.2595 85.7519 71.296 85.8252 71.6203 85.8252C71.9831 85.8252 72.6217 85.2776 75.4164 82.5701C78.3758 79.703 81.7454 77.3896 85.7557 75.4718C89.0165 73.9124 91.87 73.0907 91.2774 73.8818C91.1636 74.0338 90.7082 74.3025 90.2655 74.4789C88.5635 75.1572 85.0575 76.9816 82.8846 78.3197C78.0545 81.2942 74.5813 84.1086 71.041 87.917C69.0593 90.0487 68.4783 90.7518 65.1781 95.012C64.3332 96.1026 62.7316 97.9992 61.619 99.2267C60.0211 100.99 59.3316 101.606 58.3366 102.161C57.1896 102.801 56.9841 102.855 56.0367 102.765C54.7306 102.64 53.633 102.096 52.4746 101C51.4916 100.071 50.894 99.9232 50.5974 100.537C50.4476 100.847 50.4844 101.104 50.7737 101.766C51.2899 102.948 52.2436 103.823 53.6751 104.429C54.8571 104.93 55.5996 105.606 55.5996 106.183C55.5996 106.324 55.7948 107.194 56.0334 108.114C57.522 113.856 60.3163 118.304 65.3879 123.005C66.4591 123.998 67.3059 124.91 67.2697 125.032C67.1556 125.415 66.1109 125.52 63.2949 125.432C61.4503 125.374 60.0252 125.218 58.9007 124.952ZM58.7003 99.8372C59.7441 99.5119 60.9787 98.5066 61.3737 97.6602C61.6002 97.1749 61.5986 97.082 61.3587 96.8162C61.0285 96.4503 61.0416 96.4504 60.4091 96.8128C59.3539 97.4174 56.8511 98.2044 55.6262 98.3168C54.2555 98.4426 53.704 98.6665 53.704 99.097C53.704 99.96 56.8235 100.422 58.7003 99.8372ZM62.9749 93.8063C63.3081 93.4371 63.2226 93.1565 62.4924 92.2216C62.1133 91.7362 61.8031 91.2611 61.8031 91.1657C61.8031 91.0704 62.3811 90.173 63.0875 89.1717C66.842 83.8499 67.1073 79.1305 63.7878 76.7141C61.3435 74.9347 57.5081 75.5464 54.637 78.1734C52.3664 80.2511 51.0277 82.9822 50.2509 87.1213C49.9567 88.689 49.6723 89.6439 49.4996 89.6439C49.0163 89.6439 47.309 90.1616 46.2546 90.6278C44.7021 91.3142 44.0422 92.0038 44.4768 92.4854C44.7039 92.737 44.8817 92.7436 45.7957 92.5345C47.6273 92.1153 50.9429 91.8964 53.5022 92.0258C55.4862 92.126 56.4174 92.2769 58.241 92.7937C59.4893 93.1475 60.85 93.5716 61.2647 93.7362C62.1674 94.0945 62.6953 94.1161 62.9749 93.8063ZM55.8303 89.3544C55.1821 89.2023 54.3171 89.0763 53.9081 89.0744C52.3415 89.0675 52.1838 88.5286 52.9995 85.9681C54.5745 81.0236 57.0517 78.1635 59.726 78.2015L60.683 78.2151L59.6491 78.5436C58.3732 78.949 57.48 79.607 56.5954 80.7931C55.6173 82.1046 55.3857 82.7013 55.2921 84.1505C55.1945 85.662 55.3496 85.9674 56.3006 86.1359C57.0163 86.2627 57.2449 86.6095 56.9775 87.1631C56.4609 88.2327 57.1902 89.104 58.7037 89.2253C59.6956 89.3048 59.8847 89.41 59.606 89.7275C59.4396 89.9171 57.3459 89.7102 55.8303 89.3544ZM61.4524 82.6714C60.4571 82.1011 60.6352 80.6898 61.8113 79.8274C62.6126 79.2399 62.914 79.3326 63.3613 80.3041C63.8078 81.2738 63.787 81.67 63.2525 82.3738C62.7512 83.0339 62.2342 83.1193 61.4524 82.6714ZM47.1262 123.813C44.619 123.354 42.2579 122.682 40.3492 121.886C38.555 121.137 35.6642 119.541 35.0073 118.937L34.4903 118.461L34.8591 118.134C35.062 117.954 35.4705 117.66 35.7668 117.48C36.9597 116.755 36.5246 115.993 34.9185 115.993C32.8916 115.993 29.9221 114.616 28.9715 113.235C27.9695 111.779 27.7925 110.972 27.7807 107.804C27.7712 105.241 27.7319 104.839 27.4735 104.658C27.033 104.35 26.1194 105.423 25.4479 107.037L24.8995 108.356H23.8932C22.4263 108.356 22.3414 108.289 22.3433 107.142C22.3457 105.708 22.9872 102.401 23.3377 102.015C23.5126 101.822 24.1638 101.598 24.9265 101.469C25.6373 101.348 26.4242 101.132 26.6752 100.989C26.9262 100.846 27.485 100.641 27.9171 100.533C28.7989 100.314 30.3546 99.301 30.3546 98.9454C30.3546 98.6192 29.4505 98.5429 28.6669 98.8031C28.0465 99.009 24.9712 99.5725 24.4676 99.5725C24.3409 99.5725 24.2373 99.4222 24.2373 99.2384C24.2374 98.8838 24.7298 97.3767 25.1574 96.4221C25.7057 95.198 26.3051 93.4561 26.3051 93.0865C26.3051 92.1047 25.1666 93.1176 24.2165 94.9449C23.5634 96.2009 22.5222 98.6106 22.4006 99.1478C22.2242 99.9263 21.6474 100.162 19.6312 100.28C17.5014 100.404 16.9998 100.245 16.9998 99.4424C16.9998 98.8865 17.7737 96.1289 18.4636 94.2264C19.1032 92.4626 19.4116 92.2129 21.1481 92.0524C23.8222 91.8053 24.2485 91.1091 22.0958 90.5047C21.3445 90.2938 20.6986 90.0148 20.6604 89.8847C20.5458 89.4939 21.6163 87.6096 23.6176 84.6796C25.5201 81.8944 26.4211 80.3531 26.2547 80.1687C26.1117 80.0103 25.2597 80.5771 24.2991 81.4697C23.113 82.5719 20.6759 85.6856 19.2189 87.9602C18.5677 88.9769 17.8878 89.8604 17.7081 89.9237C17.2001 90.1023 14.2263 89.6528 13.5533 89.2957C13.178 89.0965 12.9297 88.8159 12.896 88.5527C12.7741 87.6036 16.0674 81.6342 17.0067 81.1015C17.3141 80.9272 17.9566 80.8946 19.3443 80.9829C20.7791 81.0742 21.291 81.0454 21.39 80.8681C21.6117 80.4705 20.9315 79.926 19.9576 79.7213C18.873 79.4934 18.723 79.4074 18.723 79.0136C18.723 78.6061 20.3677 76.8408 23.1755 74.2348C25.4913 72.0855 26.4423 71.0208 26.2435 70.8004C26.188 70.739 25.5394 70.9533 24.8022 71.2766C24.065 71.6 23.2485 71.9219 22.9879 71.9919C22.7273 72.062 22.514 72.232 22.514 72.3697C22.514 72.5075 21.9518 73.0712 21.2647 73.6226C19.8831 74.7312 17.2783 77.1376 16.7417 77.8013C16.0259 78.6864 14.968 78.9842 13.9954 78.5745C13.4349 78.3383 13.4012 77.5112 13.905 76.3579C14.3176 75.4137 16.04 73.2784 17.2296 72.2365C18.1744 71.409 18.6116 71.3471 20.8767 71.7204C21.5951 71.8388 22.2312 71.8821 22.2903 71.8167C22.5439 71.5357 21.9524 70.6912 21.3046 70.4093C20.2671 69.9577 20.3866 69.6369 21.978 68.6016C22.415 68.3174 23.0872 67.9194 23.4717 67.7172C24.0634 67.4062 24.7542 66.6219 24.7542 66.2612C24.7542 66.0757 23.9241 66.1547 22.9963 66.4283C21.8257 66.7736 20.3371 67.5143 18.8601 68.4866C17.9625 69.0774 17.5862 69.2267 17.2382 69.13C16.8336 69.0174 16.7953 68.9347 16.88 68.3561C17.0398 67.265 18.7394 64.6168 19.7417 63.8972C20.9234 63.0487 21.44 62.9131 23.4896 62.9131C25.8609 62.9131 26.1862 62.739 25.446 61.866C25.1347 61.4988 25.1273 61.4255 25.3643 61.0507C25.5188 60.8063 26.0256 60.5139 26.611 60.3315C28.3167 59.7999 29.4699 58.3104 27.9648 58.5828C27.668 58.6365 26.8436 58.7721 26.1327 58.8841C25.4219 58.9961 24.4678 59.1848 24.0125 59.3035C23.5572 59.4222 23.1483 59.479 23.1038 59.4297C22.9564 59.2664 25.4778 56.7678 26.0636 56.4966C26.4181 56.3325 27.2648 56.2304 28.271 56.2304C29.2049 56.2304 29.9504 56.1462 30.0131 56.0338C30.0735 55.9256 29.8777 55.5278 29.578 55.1496C29.0785 54.5193 29.0562 54.4368 29.3092 54.1565C29.5004 53.9446 29.9941 53.8287 30.9176 53.7789C32.3703 53.7004 32.6809 53.5437 32.6809 52.889C32.6809 52.3492 32.8455 52.2071 34.2318 51.5498C41.6597 48.0283 45.1638 46.0155 48.8253 43.1673C50.0984 42.1769 50.7252 41.9064 51.2494 42.1213C52.5415 42.6509 50.6283 45.2254 47.5867 47.0499C44.4188 48.9501 42.1133 50.7926 40.1815 52.9679C39.5206 53.7121 38.8836 54.321 38.7659 54.321C38.4928 54.321 38.2717 53.844 38.1237 52.9353C37.9846 52.0821 37.375 51.5471 36.7422 51.7231C36.2342 51.8643 34.6473 54.4277 34.011 56.1349C32.8203 59.3293 32.6412 60.1962 32.6496 62.7218C32.6564 64.7595 32.7233 65.3324 33.1062 66.6363C33.6056 68.3368 34.2702 69.8217 35.3031 71.5447C36.3655 73.3169 39.4154 76.5802 41.6416 78.3266C42.7315 79.1817 43.7978 80.0198 44.011 80.1891C44.2243 80.3584 44.3987 80.6715 44.3987 80.8848C44.3987 81.1092 43.6893 82.132 42.7163 83.3104C38.3919 88.5478 36.0455 92.4056 34.8805 96.1937C34.3938 97.7759 34.3403 98.1762 34.3391 100.241C34.3379 102.22 34.398 102.719 34.7805 103.904C35.4283 105.911 36.2652 107.448 37.8803 109.597C38.6695 110.647 39.5832 112.064 39.9106 112.747C41.508 116.077 44.5276 119.493 48.9221 122.942C50.7247 124.357 50.5499 124.441 47.1262 123.813ZM78.5182 118.097C75.7539 117.464 73.2372 116.364 71.3669 114.969C68.4005 112.756 67.1059 110.359 68.3082 109.304C68.7262 108.937 68.9345 108.899 70.0745 108.98C71.5669 109.086 72.7228 109.608 74.7018 111.069C76.1186 112.115 76.6764 112.199 76.7621 111.377C76.7914 111.096 76.6557 110.52 76.4605 110.096C75.8644 108.801 76.1202 107.771 76.9641 108.068C77.5377 108.27 79.3758 109.99 80.2857 111.177C81.4092 112.642 82.4708 115.037 82.5968 116.39C82.6911 117.403 82.6719 117.47 82.1444 117.961C81.466 118.594 80.7996 118.619 78.5182 118.097ZM19.0569 105.65C18.5703 105.002 17.9735 104.139 17.7307 103.733C17.1061 102.687 17.3186 102.532 19.3773 102.532H21.0493L21.0316 103.105C21.0029 104.032 20.7524 105.934 20.5978 106.398C20.3688 107.086 20.0015 106.908 19.0569 105.65ZM14.1731 96.0636C13.7104 94.9043 13.381 93.3822 13.381 92.4031C13.381 91.6609 13.5408 91.6075 14.8125 91.9241C15.2099 92.0231 15.7566 92.1559 16.0273 92.2193C16.4514 92.3186 16.508 92.4061 16.4356 92.8509C16.2661 93.8934 14.9197 97.0904 14.6502 97.0904C14.6132 97.0904 14.3985 96.6283 14.1731 96.0636ZM12.8641 81.8538C12.8641 81.4518 13.182 81.0519 13.5016 81.0519C13.8111 81.0519 13.782 81.4301 13.4405 81.8483C13.0786 82.2913 12.8641 82.2934 12.8641 81.8538ZM44.5117 77.6519C43.5577 76.6278 41.9334 74.4514 41.2669 73.3044C40.7547 72.4229 39.7461 70.0957 39.7461 69.7955C39.7461 69.6865 39.5718 69.06 39.3589 68.4032C39.0186 67.3537 38.9717 66.8393 38.9716 64.1542C38.9716 61.2295 38.9942 61.0286 39.5014 59.4439C40.2539 57.0925 41.4931 54.9063 43.1063 53.084C44.5133 51.4948 45.375 50.8068 48.8953 48.4623C51.1881 46.9353 53.1602 45.3309 54.0876 44.238C54.8554 43.3333 55.4712 43.1097 56.0459 43.5269C56.6157 43.9407 56.7044 44.5343 56.4677 46.3527C56.2363 48.1306 55.5108 49.7966 54.4094 51.0795C53.6647 51.9468 53.3283 52.0027 52.2726 51.4344L51.5213 51.0299L50.8916 51.4821C50.1805 51.9928 50.0998 52.3852 50.6023 52.889C51.1206 53.4088 51.0433 54.1972 50.4167 54.7814C49.4834 55.6516 48.7404 55.3999 47.8227 53.9026C47.4409 53.2796 47.0106 52.7198 46.8663 52.6585C46.5444 52.5216 46.3004 52.9144 46.2969 53.5754C46.2939 54.1461 45.913 54.5741 45.1742 54.8371C44.8898 54.9383 44.666 55.0999 44.6766 55.1961C44.6873 55.2924 45.0361 55.5915 45.4517 55.8609C46.8701 56.78 46.9757 57.8115 45.7864 59.1292C45.2897 59.6796 44.9891 59.8581 44.5593 59.8581C43.9764 59.8581 43.1925 59.2452 43.1925 58.7894C43.1925 58.3173 42.3085 57.376 41.8652 57.376C41.465 57.376 41.4396 57.4258 41.5482 57.9965C41.6131 58.3378 41.7066 59.0191 41.7559 59.5105C41.8438 60.3869 41.832 60.4135 41.1404 60.8972C40.7526 61.1685 40.4354 61.4581 40.4354 61.5408C40.4354 61.8513 40.8649 62.1494 41.3123 62.1494C41.5672 62.1494 41.9526 62.3081 42.1688 62.502C42.5176 62.8149 42.5622 63.025 42.5646 64.3637C42.566 65.1936 42.5041 66.3994 42.427 67.0433C42.2617 68.423 42.5127 69.8734 43.1208 71.0528C43.7999 72.3697 45.7264 74.1707 47.5872 75.2284C48.5109 75.7534 49.3067 76.2979 49.3556 76.4383C49.4858 76.8127 48.7779 77.4911 47.4538 78.2608C46.0584 79.0719 45.781 79.0145 44.5117 77.6519ZM38.3016 73.0943C37.7532 72.4828 37.0334 71.4463 36.702 70.7908C36.3705 70.1354 36.0302 69.5518 35.9455 69.4938C35.8609 69.4359 35.6812 68.984 35.5462 68.4897C35.4112 67.9954 35.177 67.3332 35.0258 67.0182C34.8635 66.6801 34.756 66.0152 34.7634 65.3952C34.7778 64.1958 34.9284 64.4957 35.267 66.3977C35.3745 67.0015 35.533 67.4955 35.6191 67.4955C35.7052 67.4955 35.9365 67.8448 36.1331 68.2718C36.3297 68.6987 36.5833 69.0145 36.6966 68.9736C36.81 68.9326 36.9859 68.5237 37.0874 68.0649C37.2862 67.1663 37.3986 67.2104 37.5826 68.2593C37.6947 68.8976 37.8762 69.3643 39.2962 72.665C39.6384 73.4604 39.9184 74.2153 39.9184 74.3424C39.9184 74.7179 39.3962 74.3147 38.3016 73.0943ZM36.472 64.418C36.472 64.0848 36.544 63.8946 36.6443 63.9632C36.7391 64.0281 36.8166 64.339 36.8166 64.654C36.8166 64.9873 36.7446 65.1775 36.6443 65.1088C36.5495 65.0439 36.472 64.7331 36.472 64.418ZM36.3239 60.3355C36.3239 59.2853 36.3905 58.2543 36.472 58.0443C36.5639 57.8072 36.6201 58.676 36.6201 60.3355C36.6201 61.995 36.5639 62.8638 36.472 62.6267C36.3905 62.4167 36.3239 61.3856 36.3239 60.3355ZM98.5074 111.611C98.7443 111.522 99.2328 111.44 99.5929 111.43C100.873 111.392 103.451 109.507 104.197 108.063C104.686 107.116 104.711 106.962 104.711 104.853V102.638L105.661 102.332C106.846 101.95 107.534 101.319 108.089 100.105C108.347 99.5429 108.736 99.0313 109.051 98.8414C111.462 97.3894 113.264 95.532 114.123 93.6132C115.475 90.5967 115.451 90.7265 115.526 85.9856C115.584 82.3559 115.548 81.464 115.304 80.4485C115.143 79.7827 114.908 78.7654 114.78 78.1879C114.271 75.8767 113.609 74.0191 112.186 70.902C111.45 69.2891 111.277 68.6411 111.582 68.6411C111.665 68.6411 112.092 68.8636 112.531 69.1355C113.219 69.5616 113.497 69.6214 114.539 69.5681L115.748 69.5062L116.394 70.4534C117.647 72.2903 119.562 72.5802 120.953 71.1433C121.542 70.5344 121.655 70.2884 121.727 69.4624C121.848 68.0646 121.538 67.2262 120.611 66.442C120.04 65.9588 119.651 65.7771 119.187 65.7771C118.315 65.7771 117.457 65.1012 117.004 64.0572C116.798 63.5855 116.39 62.9457 116.096 62.6355C115.644 62.159 115.395 62.0607 114.487 62.0018C113.518 61.9389 113.32 61.9942 112.465 62.5658C111.094 63.4829 110.687 64.4212 110.799 66.4118C110.884 67.9046 110.883 67.9054 110.532 67.5574C110.201 67.2292 109.941 66.8355 108.807 64.9401C108.163 63.8643 107.189 61.6127 107.045 60.8695C106.98 60.5331 106.77 60.0365 106.578 59.7659C106.297 59.3706 106.211 58.8908 106.136 57.3226C106.085 56.2493 105.964 55.2012 105.867 54.9936C105.691 54.6174 105.69 54.6174 105.554 54.9936C105.361 55.5252 105.58 58.9203 105.837 59.3808C105.954 59.5908 106.1 60.2082 106.16 60.7528C106.335 62.3176 107.365 64.7301 109.162 67.7819C111.161 71.1762 113.27 76.2409 113.693 78.6652C113.785 79.1903 114.031 80.1784 114.24 80.8609C114.578 81.9679 114.619 82.494 114.619 85.7298C114.619 89.261 114.606 89.3982 114.117 90.885C113.27 93.4591 111.978 95.2828 109.976 96.7309C108.961 97.4649 108.712 97.5479 107.746 97.4754C107.18 97.4328 106.958 97.7154 106.954 98.4838C106.951 99.0933 106.224 99.9544 105.712 99.9544C105.24 99.9544 104.539 99.1006 104.539 98.5271C104.539 98.1643 104.738 97.8818 105.306 97.4382C105.944 96.9399 106.044 96.7805 105.904 96.4897C105.356 95.3555 103.175 96.1466 102.483 97.7307C101.988 98.8636 102.035 99.6166 102.686 100.97C103.199 102.036 103.246 102.279 103.246 103.86C103.246 105.822 102.884 107.163 102.192 107.766C101.849 108.065 101.593 108.115 100.848 108.03C100.143 107.95 99.8038 108.006 99.4001 108.27C98.9363 108.574 98.7919 108.586 98.2005 108.369C97.3757 108.068 96.022 106.429 96.1703 105.911C96.3716 105.208 95.9375 102.649 95.4277 101.535C94.8821 100.342 94.4275 99.8033 93.5532 99.3135C93.2451 99.1409 92.7771 98.8737 92.5131 98.7197C91.8433 98.3291 89.2326 98.5308 88.5598 99.025C87.8002 99.5832 87.5949 99.7096 87.0907 99.9301C86.5285 100.176 85.9295 101.184 85.9286 101.886C85.9283 102.16 86.0887 102.611 86.2851 102.888C86.7623 103.56 87.7609 103.584 88.4565 102.94C89.082 102.361 90.6716 101.838 91.1624 102.049C91.8224 102.334 92.5227 103.338 92.6589 104.196C92.7304 104.646 92.8708 105.517 92.971 106.131C93.0711 106.746 93.3403 107.605 93.5691 108.041C93.798 108.476 94.0378 109.103 94.1021 109.434C94.2431 110.159 94.5168 110.439 95.7357 111.106C96.7591 111.667 97.8388 111.863 98.5074 111.611ZM94.5466 108.021C94.5529 107.682 94.8476 107.364 94.9634 107.571C95.0283 107.688 95.0334 107.869 94.9748 107.974C94.8506 108.196 94.5428 108.231 94.5466 108.021ZM119.046 68.6062C119.009 68.2454 119.098 68.0318 119.348 67.8835C119.828 67.5986 120.392 67.9426 120.392 68.5206C120.392 69.113 120.24 69.2423 119.623 69.1752C119.199 69.1293 119.09 69.0209 119.046 68.6062ZM114.49 65.9388C114.077 65.3974 114.112 64.7126 114.572 64.3559C115.025 64.0042 116.272 63.9616 116.567 64.2878C116.925 64.6847 116.793 65.4029 116.252 66.0022C115.834 66.4652 115.638 66.5554 115.261 66.4567C115.003 66.389 114.656 66.1559 114.49 65.9388ZM107.554 81.3074C108.77 80.5973 109.536 79.3139 109.536 77.9872C109.536 77.0581 108.882 76.0932 107.532 75.0298C106.552 74.2574 105.824 74.1816 104.666 74.7313C103.211 75.4227 102.421 77.1008 102.72 78.8662C102.847 79.6194 103.812 80.9221 104.56 81.3507C105.194 81.7135 106.901 81.6889 107.554 81.3074ZM106.304 78.5573C105.712 78.3287 105.304 77.4882 105.482 76.8653C105.545 76.6474 105.862 76.2441 106.188 75.969C106.725 75.5149 106.828 75.4909 107.303 75.7089C108.293 76.1635 108.455 77.3145 107.654 78.2025C107.089 78.8287 107.04 78.8416 106.304 78.5573ZM102.572 74.9628C103.443 74.3746 103.849 73.6578 103.849 72.711C103.849 71.5489 103.497 70.898 102.472 70.1697C101.756 69.6604 101.485 69.5681 100.976 69.6597C99.4892 69.927 98.3644 71.4095 98.5721 72.8281C98.8609 74.7999 101.069 75.9783 102.572 74.9628ZM100.922 72.5578C100.62 72.155 100.834 71.4295 101.344 71.127C101.724 70.9017 101.821 70.9129 102.124 71.2171C102.512 71.6055 102.578 72.2649 102.264 72.6126C101.976 72.9316 101.177 72.899 100.922 72.5578ZM91.5378 68.649C92.0505 68.4189 92.9885 67.1716 93.0204 66.6774C93.0712 65.8908 92.9919 65.5477 92.6285 64.9823C92.2404 64.3784 92.099 64.396 92.0076 65.0596C91.904 65.8117 91.4652 66.3499 90.9558 66.3499C90.3316 66.3499 90.0637 66.0319 90.0637 65.2912C90.0637 64.6549 90.4136 64.1894 91.0545 63.9729C91.5442 63.8076 91.5456 63.5878 91.0592 63.2103C89.6309 62.1018 87.1359 64.4558 87.5874 66.486C87.7478 67.207 88.464 68.2215 89.0494 68.5569C89.5683 68.8542 90.9652 68.9059 91.5378 68.649ZM102.106 66.2542C103.63 65.7277 104.849 63.8078 104.618 62.2963C104.497 61.5012 103.489 60.1647 102.43 59.3965C101.681 58.8527 100.275 58.9175 99.3162 59.54C98.1136 60.3208 97.6458 61.2005 97.6458 62.6805C97.6458 64.4828 98.3229 65.5737 99.8463 66.2259C100.717 66.5986 101.096 66.6034 102.106 66.2542ZM100.826 62.8263C100.268 62.2084 100.292 61.6702 100.907 60.9891C101.62 60.1986 102.361 60.2228 102.817 61.0515C103.259 61.8534 103.249 62.0026 102.714 62.7075C102.151 63.4483 101.428 63.4938 100.826 62.8263ZM113.844 55.3349C113.986 55.279 114.386 55.0217 114.733 54.7632C115.745 54.0087 115.894 53.2794 115.473 51.126C115.358 50.5374 115.388 50.4918 116.106 50.1448C116.521 49.9447 117.13 49.4665 117.462 49.0821C118.045 48.4047 118.065 48.3322 118.104 46.7325C118.134 45.4985 118.081 45.0034 117.891 44.7715C117.686 44.5206 117.679 44.3996 117.852 44.1389C118.017 43.8906 118.619 43.7523 120.478 43.5358C121.805 43.3813 123.278 43.1304 123.752 42.9783C124.226 42.8261 125.157 42.6415 125.82 42.568C126.484 42.4946 127.492 42.2809 128.06 42.0932C128.629 41.9054 129.443 41.692 129.87 41.6189C130.296 41.5458 130.97 41.3237 131.368 41.1253C131.766 40.927 132.263 40.7647 132.473 40.7647C132.989 40.7647 135.301 39.5331 136.096 38.8351C136.87 38.1564 137.067 37.4003 136.684 36.5799C136.383 35.9361 135.3 35.2276 134.615 35.2276C134.099 35.2276 134.094 35.2593 134.458 36.3152C134.718 37.0687 134.718 37.1649 134.455 37.6089C134.114 38.1859 132.749 38.9889 131.334 39.4448C130.766 39.6281 129.99 39.9103 129.611 40.072C129.232 40.2337 128.68 40.3698 128.384 40.3744C128.089 40.379 127.384 40.5466 126.818 40.7468C126.253 40.947 125.099 41.2053 124.254 41.3209C123.41 41.4365 122.292 41.6585 121.771 41.8143C121.249 41.9701 119.978 42.1872 118.945 42.2966C117.912 42.406 117.006 42.537 116.932 42.5877C116.858 42.6384 115.933 42.8063 114.875 42.9608C112.526 43.3041 112.05 43.5248 111.99 44.2984C111.966 44.6126 111.823 45.344 111.673 45.9235C111.413 46.9293 111.418 47.0327 111.771 48.1932L112.14 49.4091L111.269 50.3014C110.379 51.2126 110.286 51.4983 110.394 52.9845C110.509 54.5567 112.453 55.8816 113.844 55.3349ZM112.734 52.5601C112.379 51.9993 112.395 51.7256 112.81 51.2661C113.193 50.8419 114.007 50.7598 114.326 51.1133C114.867 51.712 114.304 52.9845 113.499 52.9845C113.181 52.9845 112.905 52.832 112.734 52.5601ZM114.934 47.0178C114.37 46.3238 114.332 46.1527 114.614 45.5493C114.972 44.7828 115.362 44.5834 116.504 44.5834C117.303 44.5834 117.463 44.639 117.463 44.9188C117.463 46.794 115.843 48.1378 114.934 47.0178ZM106.012 53.6589C106.149 53.2947 106.262 52.8912 106.262 52.7622C106.262 52.6332 106.467 52.1995 106.718 51.7983C107.102 51.1844 107.171 50.8768 107.155 49.8554C107.145 49.1879 106.979 48.0096 106.785 47.237C106.264 45.1516 106.306 44.7804 107.199 43.6219C107.619 43.0759 108.244 42.0385 108.586 41.3167C108.928 40.5948 109.355 39.9175 109.533 39.8116C109.712 39.7057 110.475 39.6191 111.229 39.6191C111.983 39.6191 113.209 39.4921 113.954 39.3369C114.699 39.1817 116.365 38.9261 117.655 38.7689C118.946 38.6117 120.222 38.3903 120.491 38.277C120.76 38.1637 121.604 37.985 122.366 37.8799C123.972 37.6587 126.538 36.8361 126.999 36.3946C127.853 35.5783 127.694 34.8422 126.539 34.2608C125.752 33.8652 125.098 33.7989 124.705 34.0748C124.489 34.2257 124.509 34.3215 124.834 34.7048C125.045 34.9533 125.217 35.2502 125.217 35.3645C125.217 35.6855 122.917 36.3887 120.909 36.6815C119.914 36.8266 118.868 37.0338 118.586 37.142C118.303 37.2503 117.179 37.4201 116.087 37.5193C114.996 37.6186 113.443 37.8397 112.638 38.0106C110.764 38.4081 107.607 38.5315 99.4551 38.5256C94.1835 38.5218 92.6214 38.4613 91.4422 38.2147C90.6366 38.0463 89.1169 37.8253 88.0649 37.7236C87.013 37.622 85.8499 37.4079 85.4801 37.2479C85.1104 37.0879 84.3099 36.871 83.7012 36.7659C82.3093 36.5255 82.1315 36.3469 82.5258 35.5857C82.9507 34.7654 82.9095 34.6547 82.18 34.655C80.809 34.655 79.6528 35.8713 80.2548 36.6792C80.6403 37.1965 81.7779 37.6609 82.9985 37.7992C83.6146 37.869 84.519 38.0495 85.0083 38.2003C85.4977 38.3511 86.8314 38.559 87.9722 38.6622C89.1129 38.7655 90.722 38.9806 91.5479 39.1402C92.3738 39.2997 93.8157 39.486 94.7521 39.5539L96.4547 39.6776L97.6534 41.1823C98.3126 42.0099 98.852 42.7829 98.852 42.9C98.852 43.1559 90.7826 42.9767 89.5467 42.6934C89.1202 42.5956 87.2592 42.4189 85.411 42.3006C83.5629 42.1823 81.4534 41.9584 80.7234 41.8029C79.9933 41.6476 78.5587 41.4365 77.5354 41.334C76.5121 41.2315 75.0933 40.9801 74.3825 40.7753C73.6717 40.5706 72.6636 40.3097 72.1423 40.1957C70.9994 39.9457 69.4975 39.0769 69.4184 38.6199C69.3409 38.1728 70.1457 37.3685 71.1946 36.8447C71.6684 36.608 72.2442 36.1903 72.4739 35.9164L72.8917 35.4185L72.4739 35.4204C70.827 35.4248 67.8563 36.4626 66.9946 37.3346C66.2174 38.1211 66.2419 39.0149 67.0611 39.7631C68.4624 41.0429 73.2225 42.4246 79.1213 43.2639C87.1437 44.4052 89.3731 44.5791 97.4718 44.6952C102.735 44.7707 102.534 44.7171 102.742 46.0971C102.798 46.4726 102.985 47.3814 103.157 48.1164C103.329 48.8515 103.523 49.8193 103.589 50.267C103.663 50.7751 103.928 51.373 104.294 51.8579C104.616 52.2852 105.031 53.0143 105.216 53.4783C105.402 53.9422 105.6 54.3218 105.658 54.3218C105.715 54.3218 105.875 54.0238 106.012 53.6596V53.6589ZM105.063 49.8436C104.886 49.6079 104.763 48.7508 104.497 45.9199C104.463 45.5533 104.532 45.4426 104.797 45.4426C105.095 45.4426 105.156 45.6095 105.249 46.6836C105.308 47.3662 105.486 48.2532 105.644 48.6547C106.078 49.7535 105.65 50.6278 105.063 49.8436ZM102.222 42.3581C101.437 42.0309 100.307 41.0894 100.043 40.5429C99.6842 39.7993 100.101 39.617 102.104 39.6414C103.111 39.6536 104.44 39.7181 105.056 39.7846C106.112 39.8986 106.179 39.9347 106.229 40.4206C106.34 41.4841 104.451 42.9968 103.332 42.7403C103.095 42.6859 102.596 42.514 102.222 42.3581ZM94.8069 53.8269C94.8993 53.802 95.1888 53.7293 95.4503 53.6654C96.0839 53.5105 96.9565 52.1712 96.9565 51.3537C96.9565 50.6836 95.9265 49.1071 95.1945 48.6568C93.9116 47.8675 91.9592 49.3645 91.9592 51.1374C91.9592 51.9811 92.4804 53.0617 93.0516 53.4022C93.4508 53.6402 94.5307 53.9015 94.8069 53.8269ZM94.5785 51.2279C94.2602 50.8753 94.3307 50.5409 94.794 50.2045C95.266 49.8619 95.9226 49.9871 95.9226 50.4197C95.9226 50.7612 95.3099 51.457 95.0093 51.457C94.8861 51.457 94.6922 51.3539 94.5785 51.2279ZM120.858 52.97C121.525 52.7493 121.943 52.1407 121.943 51.3923C121.943 50.9057 121.897 50.8561 121.555 50.9774C120.842 51.2307 120.353 51.1763 120.155 50.8218C119.993 50.5293 120.051 50.3887 120.521 49.9487C121.191 49.3222 121.218 49.0826 120.665 48.6812C120.33 48.4379 120.119 48.4175 119.588 48.5767C118.613 48.8685 118.184 49.2811 117.98 50.1205C117.535 51.951 119.139 53.5392 120.858 52.97ZM127.113 45.1331C128.108 45.0679 129.891 44.8752 131.076 44.7049C132.261 44.5346 133.812 44.3171 134.522 44.2216C140.305 43.4447 144 41.6477 144 39.6121C144 38.582 142.431 36.946 141.443 36.946C140.984 36.946 140.982 37.0664 141.415 38.1871C141.866 39.3526 141.855 39.4861 141.237 40.2661C140.887 40.7075 140.359 41.0633 139.643 41.3396C137.471 42.1777 133.823 42.9842 130.99 43.2523C129.852 43.3599 127.888 43.6174 126.623 43.8245C125.284 44.0438 123.25 44.2155 121.75 44.2357C119.935 44.2602 119.124 44.3408 118.998 44.5091C118.867 44.6835 118.923 44.8091 119.204 44.976C119.64 45.2346 124.186 45.3249 127.113 45.1331ZM62.9232 37.7752C64.0679 37.6243 64.8387 37.2551 65.4701 36.5555C65.8331 36.1533 66.4942 35.6316 66.9391 35.3962C70.4198 33.5546 73.8877 29.6518 77.5375 23.4687C78.1628 22.4095 78.9983 20.8773 79.3944 20.0638C80.043 18.7314 80.088 18.5554 79.8488 18.2904C79.6096 18.0253 79.4834 18.0586 78.5768 18.6261C76.4552 19.9543 72.2547 22.2472 71.5681 22.4518C71.1731 22.5696 70.643 22.7844 70.3901 22.9291C69.5275 23.4229 65.9203 24.1513 64.3324 24.1524C57.6591 24.1568 52.1744 19.3272 48.0144 9.78399C47.3496 8.25895 46.6552 6.55068 46.4712 5.98781C44.7681 0.777276 44.465 0.00012207 44.1362 0.00012207C43.4849 0.00012207 43.0799 1.29546 42.5842 4.96442C42.1666 8.05474 42.1284 8.767 42.2058 12.029C42.3302 17.2761 42.9652 20.4274 44.7536 24.6719C46.114 27.9007 48.6237 31.7907 49.3465 31.7907C49.7624 31.7907 49.5732 30.7002 48.8948 29.1875C47.5169 26.1152 45.9197 21.2427 45.6799 19.38C45.619 18.9074 45.4579 18.0912 45.3218 17.5661C45.022 16.4092 44.793 12.7026 45.0387 12.9837C45.1305 13.0887 45.875 15.4085 46.693 18.1389C48.4936 24.149 48.913 25.4505 49.282 26.1742C49.4382 26.4804 49.6421 26.9673 49.7352 27.256C49.8283 27.5448 50.0227 27.7811 50.1672 27.7811C50.5156 27.7811 50.5161 25.8461 50.1681 24.2488C49.8937 22.9896 49.8233 19.8458 50.0658 19.6797C50.4926 19.3875 50.9175 21.1475 51.2684 24.661C51.4337 26.3171 52.2039 29.5752 52.5227 29.9673C52.8897 30.4187 53.0795 29.5856 53.1925 27.0269C53.3095 24.3797 53.4561 23.7715 53.9776 23.7715C54.4531 23.7715 54.5856 24.6413 54.7129 28.5975C54.853 32.9509 54.991 33.6791 55.6068 33.3139C56.1378 32.9991 56.4587 32.3122 56.6347 31.1141C56.81 29.9207 57.385 27.8473 57.7972 26.9219C58.405 25.5575 59.2168 25.147 60.0415 25.7871C60.8806 26.4383 60.3893 28.6844 58.8371 31.2933C57.9398 32.8013 57.6674 33.4097 57.6674 33.9054C57.6674 34.2679 57.7352 34.3056 58.2014 34.2023C58.6016 34.1136 59.5412 33.1769 61.9494 30.4659C65.0966 26.9229 66.2631 25.9195 66.9133 26.1959C67.8459 26.5925 65.4132 29.4425 61.6031 32.4171C60.9718 32.91 60.181 33.6683 59.8457 34.1022C59.3479 34.7466 59.053 34.939 58.2364 35.1519C57.0084 35.472 53.695 35.4976 52.5158 35.196C51.9292 35.046 51.5224 35.0345 51.2668 35.1609C50.9228 35.331 51.0039 35.4137 52.1425 36.0546C53.3442 36.731 55.4736 37.3921 57.4951 37.7164C58.4374 37.8676 61.9357 37.9055 62.9232 37.7752ZM62.3201 33.8648C64.2956 32.6238 67.9046 29.885 69.4714 28.438C70.5847 27.4097 71.1084 27.0966 71.1084 27.4594C71.1084 28.072 69.2861 30.2662 67.593 31.6922C66.0066 33.0282 63.2327 34.4064 62.0616 34.4403L61.3723 34.4602L62.3201 33.8648ZM108.674 37.3307C109.101 37.2441 110.497 37.1101 111.776 37.0328C113.056 36.9556 114.49 36.7726 114.964 36.6262C115.438 36.4799 116.23 36.2463 116.724 36.107C118.44 35.6232 119.028 34.8186 118.297 33.9521C118.075 33.6885 117.7 33.3635 117.463 33.2299C116.781 32.8452 114.344 32.306 114.168 32.5009C114.075 32.6036 114.432 32.9776 115.051 33.4254C116.622 34.5636 116.461 34.7506 113.408 35.3347C112.553 35.4984 111.43 35.6057 110.913 35.5731C110.078 35.5205 109.96 35.4608 109.855 35.0366C109.789 34.7741 109.528 33.7001 109.273 32.6499C109.019 31.5998 108.567 30.2251 108.269 29.595C107.522 28.0123 105.55 25.8456 104.446 25.3928C103.263 24.9079 103.205 24.8373 102.978 23.6135C102.867 23.0178 102.709 22.2726 102.626 21.9576C102.543 21.6426 102.315 20.3594 102.12 19.1062C101.924 17.8529 101.605 16.4179 101.41 15.9171C100.868 14.5208 100.005 14.0702 99.1131 14.7177C98.2386 15.3527 98.1823 16.7706 98.8789 20.6211C99.0689 21.6712 99.2676 23.1472 99.3206 23.9011L99.4169 25.2717L98.4754 26.3832C96.6908 28.4902 96.1371 29.8333 95.9001 32.6302C95.8095 33.6995 95.6389 34.6678 95.5175 34.8028C95.0671 35.3034 91.1973 34.5736 90.1078 33.7826C89.7369 33.5133 89.7297 33.4674 89.9757 32.9402C90.3516 32.1349 90.3036 31.9816 89.6759 31.9824C88.9299 31.9843 88.0322 32.6137 87.8914 33.2355C87.6608 34.2535 89.2882 35.3118 91.9592 35.8808C92.5752 36.0121 93.467 36.2619 93.9409 36.436C94.4148 36.6101 95.9269 36.8922 97.3011 37.063C100.053 37.405 107.451 37.5791 108.674 37.3307ZM105.502 33.3939C104.673 33.0413 103.262 29.7799 103.364 28.4481C103.542 26.0954 105.639 28.0413 106.333 31.2033C106.733 33.0259 106.442 33.7934 105.502 33.3939Z" fill="#001431"/>
<defs>
<linearGradient id="paint0_linear_101_1567" x1="72" y1="0" x2="72" y2="130" gradientUnits="userSpaceOnUse">
<stop offset="0.390625" stop-color="#F79400"/>
<stop offset="0.932292" stop-color="#F7FC03"/>
</linearGradient>
</defs>
</svg>
